<?xml version="1.0" encoding="iso-8859-1"?>
<!-- Uploaded to: SVG Repo, www.svgrepo.com, Generator: SVG Repo Mixer Tools -->
<svg fill="#CD7F32" height="800px" width="800px" version="1.1" id="Layer_1" xmlns="http://www.w3.org/2000/svg" xmlns:xlink="http://www.w3.org/1999/xlink" 
	 viewBox="0 0 512 512" xml:space="preserve">
<g>
	<g>
		<path d="M364.216,323.939c-10.685,9.799-22.695,18.172-35.731,24.812v9.427c0,39.968-32.516,72.484-72.484,72.484
			s-72.484-32.516-72.484-72.484v-9.427c-13.036-6.64-25.047-15.013-35.729-24.812C87.77,324.203,39.026,373.105,39.026,433.183V512
			h433.952v-78.817C472.977,373.105,424.232,324.203,364.216,323.939z"/>
	</g>
</g>
<g>
	<g>
		<path d="M284.73,363.524c-0.198,0.035-0.395,0.073-0.593,0.108c-1.107,0.196-2.215,0.38-3.328,0.553
			c-0.414,0.065-0.829,0.125-1.244,0.186c-1.042,0.153-2.085,0.306-3.131,0.439c-0.477,0.061-0.957,0.109-1.436,0.166
			c-1.573,0.186-3.149,0.35-4.731,0.489c-0.893,0.079-1.788,0.156-2.686,0.221c-0.671,0.048-1.344,0.089-2.017,0.128
			c-1.03,0.061-2.062,0.111-3.097,0.152c-0.553,0.021-1.104,0.047-1.657,0.063c-1.598,0.048-3.201,0.078-4.81,0.078
			s-3.212-0.031-4.81-0.078c-0.554-0.016-1.105-0.042-1.657-0.063c-1.035-0.042-2.068-0.091-3.097-0.152
			c-0.673-0.04-1.345-0.08-2.017-0.128c-0.897-0.064-1.792-0.141-2.686-0.221c-1.582-0.139-3.158-0.303-4.731-0.489
			c-0.478-0.057-0.959-0.105-1.436-0.166c-1.046-0.133-2.089-0.286-3.131-0.439c-0.415-0.062-0.83-0.122-1.244-0.186
			c-1.111-0.172-2.22-0.357-3.328-0.553c-0.198-0.035-0.395-0.073-0.593-0.108c-4.465-0.809-8.894-1.786-13.272-2.976
			c1.231,22.099,19.599,39.698,42.001,39.698c22.402,0,40.77-17.599,42.001-39.698C293.624,361.737,289.195,362.715,284.73,363.524z
			"/>
	</g>
</g>
<g>
	<g>
		<path d="M450.41,138.037c-13.248-37.843-37.764-71.676-69.849-96.092C344.499,14.505,301.427,0,256,0
			s-88.498,14.505-124.559,41.945c-32.086,24.416-56.602,58.248-69.851,96.092c-15.267,3.614-26.665,17.348-26.665,33.703v68.252
			c0,19.101,15.54,34.641,34.641,34.641h41.717c-9.946-20.85-15.524-44.169-15.524-68.767c0-24.598,5.578-47.917,15.525-68.766
			H94.561c11.91-27.801,31.076-52.515,55.3-70.949C180.581,42.774,217.284,30.417,256,30.417s75.419,12.356,106.141,35.734
			c24.223,18.433,43.388,43.148,55.298,70.949h-16.723c9.947,20.849,15.525,44.168,15.525,68.766
			c0,24.598-5.577,47.917-15.525,68.767h41.717c19.101,0,34.641-15.54,34.641-34.641V171.74
			C477.074,155.385,465.677,141.651,450.41,138.037z"/>
	</g>
</g>
<g>
	<g>
		<path d="M256,76.043c-48.738,0-91.282,27.001-113.478,66.827c3.323,0.403,6.68,0.609,10.06,0.609
			c19.882,0,39.094-7.161,54.096-20.164l10.706-9.278l10.013,10.021c20.568,20.583,47.92,31.919,77.018,31.919
			c22.07,0,43.499-6.72,61.526-19.077C342.944,100.372,302.263,76.043,256,76.043z"/>
	</g>
</g>
<g>
	<g>
		<path d="M243.102,265.849h25.796c7.915,0,14.955,3.721,19.483,9.503l77.542-0.495c12.6-19.999,19.901-43.658,19.901-68.991
			c0-14.395-2.359-28.249-6.704-41.2c-22.203,14.111-48.096,21.729-74.705,21.729c-32.728,0-63.73-11.209-88.625-31.812
			c-18.578,12.529-40.578,19.313-63.208,19.313c-7.379,0-14.683-0.729-21.85-2.135c-2.964,10.873-4.555,22.306-4.555,34.106
			c0,71.585,58.238,129.823,129.823,129.823c31.63,0,60.65-11.376,83.195-30.244l-50.771,0.323
			c-4.527,5.814-11.587,9.558-19.527,9.558h-25.796c-13.663,0-24.739-11.076-24.739-24.739S229.438,265.849,243.102,265.849z"/>
	</g>
</g>
</svg>