<!DOCTYPE svg PUBLIC "-//W3C//DTD SVG 1.1//EN" "http://www.w3.org/Graphics/SVG/1.1/DTD/svg11.dtd">
<!-- Uploaded to: SVG Repo, www.svgrepo.com, Transformed by: SVG Repo Mixer Tools -->
<svg fill="#262262" width="800px" height="800px" viewBox="0 0 96 96" id="Layer_1_1_" version="1.1" xml:space="preserve" xmlns="http://www.w3.org/2000/svg" xmlns:xlink="http://www.w3.org/1999/xlink" stroke="#262262">
<g id="SVGRepo_bgCarrier" stroke-width="0"/>
<g id="SVGRepo_tracerCarrier" stroke-linecap="round" stroke-linejoin="round"/>
<g id="SVGRepo_iconCarrier">
<path d="M25,21v10h6.719c0.374,1.295,0.881,2.532,1.521,3.69l-4.745,4.745l7.071,7.071l4.745-4.745 c1.157,0.639,2.395,1.147,3.69,1.521V50h10v-6.719c1.295-0.374,2.532-0.881,3.69-1.521l4.745,4.745l7.071-7.071l-4.745-4.745 c0.639-1.157,1.146-2.395,1.521-3.69H73V21h-6.719c-0.374-1.295-0.881-2.533-1.521-3.69l4.745-4.745l-7.071-7.071l-4.745,4.745 C56.532,9.6,55.295,9.093,54,8.719V2H44v6.719c-1.295,0.374-2.532,0.881-3.69,1.521l-4.745-4.745l-7.071,7.071l4.745,4.745 c-0.639,1.157-1.146,2.395-1.521,3.69H25z M49,13c7.18,0,13,5.82,13,13c0,6.842-5.289,12.437-12,12.949v-7.019 c3.945-0.493,7-3.852,7-7.931c-4.079,0-7.438,3.055-7.931,7h-0.138c-0.493-3.945-3.852-7-7.931-7c0,4.079,3.055,7.438,7,7.931v7.019 C41.289,38.437,36,32.842,36,26C36,18.82,41.82,13,49,13z"/>
<rect height="21" width="8" x="20" y="73"/>
<rect height="16" width="8" x="38" y="78"/>
<rect height="8" width="8" x="73" y="86"/>
<rect height="12" width="8" x="56" y="82"/>
<path d="M88.707,71.293l-1.414,1.414l3.224,3.224c-9.915-0.321-24.089-1.466-39.297-4.907c-8.062-1.824-16.097-4.168-23.883-6.966 l-0.676,1.883c7.862,2.825,15.977,5.191,24.117,7.034c15.294,3.46,29.545,4.621,39.547,4.951l-3.966,3.305l1.281,1.537l6-5 c0.216-0.181,0.346-0.442,0.358-0.724c0.013-0.28-0.093-0.554-0.292-0.752L88.707,71.293z"/>
<path d="M12,50C6.477,50,2,54.477,2,60c0,5.523,4.477,10,10,10s10-4.477,10-10C22,54.477,17.523,50,12,50z M13,65.949V68h-2v-2H9v-2 h3.5c0.827,0,1.5-0.673,1.5-1.5S13.327,61,12.5,61h-1C9.57,61,8,59.43,8,57.5c0-1.758,1.308-3.204,3-3.449V52h2v2h2v2h-3.5 c-0.827,0-1.5,0.673-1.5,1.5s0.673,1.5,1.5,1.5h1c1.93,0,3.5,1.57,3.5,3.5C16,64.258,14.692,65.704,13,65.949z"/>
</g>
</svg>